<?xml version="1.0" encoding="UTF-8"?>
<svg id="a" data-name="Layer 1" xmlns="http://www.w3.org/2000/svg" viewBox="0 0 150 139.94">
  <defs>
    <style>
      .b {
        fill: #2a2a2b;
      }
    </style>
  </defs>
  <path class="b" d="M150,32.93c-3.45-3.13-7.45-5.88-11.74-7.83.33-.72.63-1.43.87-2.11,1.72.38,3.36,1.08,4.92,1.95.05.03.1-.05.05-.08-1.48-.98-3.16-1.68-4.91-2.03.02-.05.04-.1.05-.16.06-.19.11-.39.15-.58,2.67.33,5.32.66,7.92,1.42.05.02.07-.07.02-.08-2.54-.91-5.24-1.2-7.91-1.49.45-2.42-.22-5.8-.22-6.67,0-.96.27-1.8.53-2.15.27-.35.27-2.24.88-3.42.62-1.18.48-3.5,0-6.35-2.1-1.92-2.46-1.92-3.42-3.36-1.85.31-4.52,3.94-5.8,5.34-1.28,1.4-2.29,1.97-2.29,1.97-4.13-1.8-8.66.22-8.66.22,0,0-.53-.92-1.23-.96-.7-.04-1.8,0-2.5-.52-.7-.52-1.8-2.1-4.09-3.54-2.29-1.45-3.6-2.24-4.22-2.01-.62.22-.53,1.84.04,4.33.57,2.5,1.05,4.2,1.49,4.95.44.74.57,1.14.48,1.58-.08.39-.19,2.09.08,3.12-1.28-.63-2.53-1.32-3.85-1.88-.04-.02-.08.04-.04.06,1.34.68,2.63,1.45,3.98,2.11.01.03.03.07.04.1.44.92.35,1.45.04,1.88-.08.13-.19.37-.3.68-1.71-.26-3.45-.4-5.15-.46-2.97-.1-5.98.28-8.8,1.25-.02.01-.02.05.01.04,2.86-.88,5.8-1.2,8.78-1.12,1.71.05,3.39.28,5.06.55-.02.07-.04.13-.07.2-1.03-.05-2.07-.06-3.08-.03-2.01.07-3.99.55-5.63,1.75-.03.02,0,.07.03.05,1.8-1.11,3.78-1.56,5.89-1.62.91-.03,1.81.04,2.72.11-.07.24-.13.49-.19.74-.69.15-1.4.26-2.11.37-.05,0-.04.1.01.1.7-.02,1.38-.13,2.05-.28-.08.35-.14.67-.16.9-.08.83-.22,1.49-1.19,1.84-.97.35-.97.39-2.9,1.01-1.93.61-3.91,1.4-5.45,2.63-1.54,1.22-1.71,1.66-2.59,1.84-.88.17-3.47.75-5.58,1.1-2.11.35-3.61,1.1-5.05,1.58-1.45.48-4.39,2.01-5.45,2.23-1.05.22-4.79.52-8.4,2.32-3.61,1.8-7.3,3.54-11.16,7.36-9.08,8.94-17.75,28.1-15.99,40.98.53,3.85,1.58,6.65-4.22,9.81-5.8,3.15-10.55,6.13-13.36,9.11-2.81,2.98-8.26,9.63-10.37,14.54-2.84,6.6-6.03,14.5-13.36,14.81-10.6.46-.87,10.22,5.98,8.66,6.15-1.4,11.95-7.71,15.99-14.89,4.04-7.18,13.89-25.83,28.12-22.55,1.06.24,1.05.27,4.13.83,3.08.57,7.65.39,8.7.35,1.05-.05,1.49-.83,1.71-.7.22.13-.22-.13.62.5.83.63,5.67-.46,8.21-.37,2.55.09,8.75-.04,9.49-.04s1.71-.22,1.71-.22c1.1.83,3.87.57,4.66.52.79-.05.27.27,1.98,0,1.71-.26,2.37-2.27,2.42-3.41.04-1.14-1.84-2.1-1.84-2.1,1.54-.44.88-2.06.83-2.54-.04-.48-1.45-1.27-2.81-1.84-1.36-.57-3.3-.31-3.3-.31,0,0,.74-3.02,1.23-6.13.48-3.11,2.11-3.68,3.03-4.6.93-.92,1.54-1.01,2.02-.39.48.61.88,1.1,1.01,2.24.13,1.14.57,6.09.7,8.1.13,2.01,1.4,5.78,1.94,8.45.53,2.67,4.62,2.67,6.5,2.45s1.76-.61,1.76-.61c0,0,.75.79,2.5.57,1.76-.22,1.89-2.01,1.71-3.94-.18-1.93-2.46-2.67-3.38-3.24-.93-.57-2.24-.7-2.24-.7,0,0-.62-2.5-.53-4.68.09-2.19,1.14-9.72,1.54-11.73.39-2.01,1.19-5.47,2.15-6.61.97-1.14,4.39-5.95,9.18-9.9,4.79-3.94,6.59-5.51,8.26-8.41,1.67-2.89,1.89-4.16,2.68-5.39.79-1.22.66-6.65.57-7.58-.09-.92.08-1.22.83-2.45.75-1.22,1.54-4.82,2.81-7.75.42-.96.87-1.89,1.31-2.8,2.14,1.76,4.12,3.65,5.81,5.88.04.04.11,0,.08-.05-1.52-2.37-3.61-4.26-5.81-5.99.13-.26.25-.51.38-.77,3.88,2.36,7.13,5.35,10.3,8.64.02.02.06-.01.04-.04-3-3.43-6.37-6.41-10.26-8.75.25-.51.5-1.02.73-1.52,4.22,2.1,8.1,4.65,11.76,7.68.05.04.12-.02.07-.07h.01Z"/>
</svg>