<?xml version="1.0" encoding="UTF-8"?>
<svg id="Layer_1" xmlns="http://www.w3.org/2000/svg" version="1.1" viewBox="0 0 443.7 66.7">
  <!-- Generator: Adobe Illustrator 29.5.1, SVG Export Plug-In . SVG Version: 2.1.0 Build 141)  -->
  <defs>
    <style>
      .st0 {
        fill: #b8aaca;
      }

      .st1 {
        fill: #4c2c78;
      }
    </style>
  </defs>
  <g>
    <path class="st1" d="M70.5,40h3.7l11.7,16.5v-16.5h5.1v26.3h-3.7l-11.7-16.5v16.5h-5.1v-26.3Z"/>
    <path class="st1" d="M97.1,40h15.1v4.6h-10v7.1h8.4v4.6h-8.4v5.5h10.4v4.6h-15.4v-26.3Z"/>
    <path class="st1" d="M122.7,40v26.3h-5.1v-26.3h5.1Z"/>
    <path class="st1" d="M146.4,45.6c-1.9-1-3.8-1.4-5.9-1.4-4.6,0-8.1,3.4-8.1,8.9s4,9,8.7,9,2.2-.1,3-.4v-4.4h-5v-4.6h10v12.3c-2.5,1.2-5.3,1.7-8.2,1.7-7.9,0-13.6-5.5-13.6-13.6s5.4-13.6,13.3-13.6,5.3.6,7.4,1.8l-1.5,4.3Z"/>
    <path class="st1" d="M154.3,40h5.1v11.7h8.8v-11.7h5.1v26.3h-5.1v-10h-8.8v10h-5.1v-26.3Z"/>
    <path class="st1" d="M179.3,40h8.5c5.5,0,8.6,3.2,8.6,7.5s-1,4.5-3.1,5.5c2.5.8,4.2,3.2,4.2,6,0,4.8-2.8,7.3-9.3,7.3h-9v-26.3ZM187.7,44.5h-3.3v6.6h3.3c2.7,0,3.8-1.2,3.8-3.3s-1-3.3-3.8-3.3ZM184.4,55.6v6.1h4.4c2.7,0,3.6-1.1,3.6-3s-1-3.1-3.6-3.1h-4.4Z"/>
    <path class="st1" d="M213.2,39.5c7.4,0,13.2,5.6,13.2,13.6s-5.8,13.6-13.2,13.6-13.2-5.6-13.2-13.6,5.8-13.6,13.2-13.6ZM213.2,62.1c4.5,0,8-3.6,8-8.9s-3.6-8.9-8-8.9-8,3.6-8,8.9,3.6,8.9,8,8.9Z"/>
    <path class="st1" d="M241.5,58.1l7.8,8.2h-6.4l-7.2-8v8h-5.1v-26.3h8.5c6,0,9.7,4.1,9.7,9.2s-2.8,7.8-7.3,8.9ZM235.7,54.1h2.6c3.5,0,5.4-1.6,5.4-4.8s-1.9-4.8-4.7-4.8h-3.3v9.6Z"/>
    <path class="st1" d="M253.7,40h5.1v11.7h8.8v-11.7h5.1v26.3h-5.1v-10h-8.8v10h-5.1v-26.3Z"/>
    <path class="st1" d="M290,39.5c7.4,0,13.2,5.6,13.2,13.6s-5.8,13.6-13.2,13.6-13.2-5.6-13.2-13.6,5.8-13.6,13.2-13.6ZM290,62.1c4.5,0,8-3.6,8-8.9s-3.6-8.9-8-8.9-8,3.6-8,8.9,3.6,8.9,8,8.9Z"/>
    <path class="st1" d="M319,39.5c7.4,0,13.2,5.6,13.2,13.6s-5.8,13.6-13.2,13.6-13.2-5.6-13.2-13.6,5.8-13.6,13.2-13.6ZM319,62.1c4.5,0,8-3.6,8-8.9s-3.6-8.9-8-8.9-8,3.6-8,8.9,3.6,8.9,8,8.9Z"/>
    <path class="st1" d="M344.7,66.3h-8.2v-26.3h8.2c8,0,13.3,4.8,13.3,13.1s-5.4,13.1-13.3,13.1ZM344.7,44.6h-3.2v17.1h3.2c4.6,0,8.2-2.9,8.2-8.5s-3.6-8.6-8.2-8.6Z"/>
    <path class="st0" d="M373.5,39.5c2.5,0,4.7.4,6.8,1.4l-1.5,4.3c-1.3-.7-3.2-1.1-5.1-1.1-4.5,0-7.9,3.7-7.9,8.9s4,8.9,8.2,8.9,3.6-.3,5-1.1l1.5,4.3c-2,1.1-4.3,1.5-6.7,1.5-7.1,0-13.2-5.2-13.2-13.6s6-13.6,12.9-13.6Z"/>
    <path class="st0" d="M399.8,62.4h-10.6l-1.4,3.9h-5.3l9.9-26.3h4.1l9.9,26.3h-5.3l-1.4-3.9ZM390.8,57.9h7.4l-3.7-10.2-3.7,10.2Z"/>
    <path class="st0" d="M412.9,44.6h-6.6v-4.6h18.2v4.6h-6.6v21.7h-5.1v-21.7Z"/>
    <path class="st0" d="M428,46.7c0-4.2,2.8-7.1,7.9-7.1s4.8.7,6.6,1.8l-1.5,4.3c-1.3-.9-2.9-1.5-4.6-1.5s-3.3.9-3.3,2.2.9,2.3,4.2,4c4.3,2.1,6.4,4.4,6.4,8.4s-3.1,8-8.9,8-5.3-.8-7.4-2.1l1.5-4.4c1.6,1.2,3.7,1.8,5.6,1.8s4-1.1,4-2.9-1.3-3-4.3-4.4c-4.9-2.3-6.3-4.7-6.3-8.1Z"/>
  </g>
  <g>
    <path class="st1" d="M10.8,43.1s0,0,0,0c0,0,0,0,0,0ZM10.8,43.1s0,0,0,0c0,0,0,.1.1.2,0,0,.1.1.2.2,0,0,.1.2.1.3,0,0,0,.1,0,.2,0,0-.1.2-.2.2,0,0,0,.2-.1.3,0,0-.2.2-.3.2-.1,0-.3,0-.4,0-.1,0-.2-.1-.3-.2s-.1,0-.2,0c-.1,0-.3,0-.4-.1-.1,0-.3-.1-.4-.1-.2,0-.4,0-.6,0-.2,0-.3.1-.4.2,0,0-.1,0-.2,0-.1,0-.3,0-.4-.1s-.3,0-.5,0-.3,0-.3,0c0,0-.1,0-.2,0,0,0-.2,0-.3,0,0,0-.2,0-.3,0,0,0-.2,0-.2-.1,0,0-.1,0-.3-.1-.1,0-.3-.1-.5-.2-.1,0-.2,0-.3-.1,0,0-.1,0-.2-.1s-.2,0-.3,0,0,0-.1.2c0,.1,0,.3-.2.4,0,.1-.2.1-.2.2,0,0-.1.2-.2.3,0,0-.2,0-.3,0,0,0-.1,0-.2,0,0,0-.3,0-.3-.1,0,0,0-.1,0-.2s.1-.1.1-.2c0,0,0-.1,0-.2s-.1-.2-.2-.3c0,0-.2,0-.3-.1-.1,0-.3,0-.4-.1,0,0-.1,0-.1,0,0,0,0,0,0-.1,0,0,0-.1,0-.2,0,0-.1-.2-.2-.3,0-.2,0-.4,0-.6,0-.2,0-.3,0-.4s0-.3,0-.4c0,0,0-.1,0-.2s0-.2,0-.3c0-.1,0-.3,0-.4,0-.1,0-.1,0-.2,0,0,0-.1,0-.2,0,0,0-.1,0-.2,0-.1-.2-.4-.3-.5-.1-.2-.2-.3-.3-.4,0-.1-.1-.3-.1-.4,0-.1,0-.3,0-.4,0-.1,0-.2,0-.3,0,0,0-.1,0-.2s0-.2,0-.3,0-.2.1-.3c0-.1.1-.3.2-.4,0-.1,0-.2.1-.3,0,0,0-.1.1-.3s.2-.5.3-.7c0-.2,0-.3,0-.4,0,0,0-.1,0-.2,0,0,0-.2.2-.2,0,0,.2-.1.3-.3.2-.1.4-.4.7-.6.3-.2.6-.5.8-.6.2-.2.3-.2.3-.3,0,0,0-.2.1-.3,0,0,.2-.2.3-.3.1,0,.3-.2.5-.3.1,0,.2-.2.3-.3,0,0,.1-.1.2-.2.1,0,.3-.2.4-.3,0-.1,0-.3,0-.5,0-.2,0-.3,0-.4,0-.1,0-.2,0-.4,0-.2,0-.4,0-.5,0-.1,0-.2,0-.3,0,0,0-.1-.1-.2,0,0,0-.1,0-.2,0,0,0-.2-.1-.3,0-.1,0-.2,0-.3s0-.1,0-.2c0,0,0-.2-.2-.3-.1-.1-.3-.3-.4-.4-.1-.1-.2-.2-.3-.2-.1,0-.3,0-.5,0-.2,0-.3,0-.4.1-.1,0-.2.1-.3.2,0,0-.2,0-.3.1-.1,0-.3,0-.4,0-.1,0-.2,0-.4.1-.1,0-.2,0-.3,0,0,0-.1,0-.2,0,0,0-.2,0-.3,0,0,0-.2-.1-.2-.2,0,0,0-.1,0-.2,0,0,.1-.2.2-.4,0-.2,0-.4.1-.5,0-.2.2-.3.2-.4,0-.1.1-.3.2-.4,0-.1.2-.3.3-.4s.1-.3.2-.5c0-.2,0-.3,0-.4,0-.1,0-.2,0-.3,0,0,0-.2,0-.2,0,0,0-.2,0-.3,0-.1,0-.2,0-.3,0-.1,0-.2,0-.3,0-.1,0-.3-.1-.4,0-.1,0-.3,0-.4,0-.1,0-.3,0-.4,0-.1,0-.2,0-.4,0-.1,0-.3-.2-.4,0-.1-.2-.2-.2-.3,0-.1,0-.2-.1-.3,0-.1-.1-.2-.2-.3,0-.1-.1-.2-.1-.3,0,0,0-.1,0-.2,0,0,.1,0,.2,0,0,0,.1-.2.1-.3,0-.1,0-.2,0-.3,0,0,0-.1-.1-.2,0,0-.1-.1-.2-.2,0,0,0-.1-.1-.3,0-.2-.2-.4-.3-.7,0-.3-.1-.5-.2-.7,0-.2,0-.4,0-.5s0-.3,0-.6c0-.3,0-.9,0-1.3,0-.4,0-.7,0-1s0-.4,0-.6c0-.2,0-.3,0-.5,0-.1,0-.2-.1-.5,0-.3,0-.7,0-.9,0-.3,0-.4,0-.5,0-.1,0-.3,0-.4,0-.1,0-.2,0-.3,0,0,0-.2.1-.3,0,0,.1-.2.1-.3,0-.1,0-.3,0-.5s0-.2,0-.3c0,0,0-.2.2-.3,0,0,.1-.1.2-.2,0,0,0-.1.1-.3,0-.1.1-.3.2-.4,0-.1,0-.3,0-.4s0-.2,0-.3c0,0,0-.2,0-.2,0,0,.1-.1.2-.2,0,0,.1-.2.1-.2,0,0,0-.1,0-.5v-1.9c0,0,0-.2,0-.2,0,0,0-.1,0-.2,0,0,.1-.2.2-.2s.2-.1.2-.2c0,0,0-.1.1-.2,0,0,0-.1.1-.2,0,0,0-.1,0-.3,0-.1,0-.3,0-.4,0-.1,0-.2,0-.3,0,0,.1-.1.2-.2s.2,0,.3-.1c0,0,.1,0,.2,0,0,0,.2.1.3.2,0,0,.2.2.3.3.1,0,.2.2.4.3.1.1.3.3.4.4.1,0,.2.2.4.4.2.2.5.6.8.9.2.2.3.3.5.4.1,0,.3.2.4.4.1.1.2.2.2.3,0,0,0,.1.1.2s.2,0,.2,0c0,0,0-.2.1-.2,0,0,0-.1,0-.2,0,0,0-.2.1-.2s.1,0,.1.1c0,0,0,.2,0,.2,0,0,0,.1,0,.2,0,0,0,.1,0,.2,0,0,.1.1.2.2s.2.2.3.3c.1.1.2.2.5.4.2.2.6.5.9.8.3.2.6.4.8.5s.3.2.4.2c0,0,.1.1.2.2,0,0,.1,0,.2.1s.1.1.3.2c.1,0,.3,0,.5.1.1,0,.3.1.4.2.1,0,.3,0,.4,0,.2,0,.3,0,.4,0,.1,0,.2,0,.4.1.2,0,.4,0,.6,0,.1,0,.2,0,.3,0,0,0,.2,0,.3.1.1,0,.2,0,.5,0,.3,0,.9,0,1.2,0s.4,0,.5,0c0,0,.2,0,.5,0,.3,0,.8,0,1.1,0,.3,0,.5,0,.6,0s.2,0,.3,0c0,0,.1,0,.2,0s.2,0,.3,0,.2,0,.3,0,.3.1.4.2c.1,0,.3,0,.4,0,.1,0,.2,0,.4,0,.1,0,.3.1.5.2.2,0,.3.1.5.2.2,0,.4.2.5.3s.2.2.3.3c0,0,.2.2.3.3.1,0,.2.2.4.2.2,0,.4,0,.6,0,.2,0,.3,0,.4,0,0,0,0,0,.1,0,0,0,.1,0,.1.2,0,0,0,.2,0,.3s0,.2,0,.2c0,0,.1,0,.2,0,0,0,.2,0,.2,0,0,0,0,0,0-.1,0,0,0-.2,0-.2s0-.1.1-.2c0,0,.1-.2.2-.2,0,0,.1,0,.2,0,.1,0,.2.2.3.3.1.1.2.2.3.2,0,0,.1,0,.3.1.1,0,.4.2,1.1.3.4.3.6.4.8.5.1,0,.2.2.3.2,0,0,.2,0,.2,0s.1,0,.2,0,.1,0,.2.1c0,0,.1.1.2.2,0,0,.1.1.2.2,0,0,.2,0,.3.2.1.1.3.3.4.4.1.1.2.2.3.3,0,0,.2.1.2.2,0,0,0,.2.1.2,0,0,0,.2,0,.2,0,0,0,.1,0,.2,0,0,0,.2,0,.3s0,.3,0,.5c0,.2,0,.3.1.5,0,.1,0,.2,0,.3,0,0,0,.2.1.2,0,0,.2,0,.3,0,0,0,0,0,0-.2,0-.1,0-.3,0-.4,0-.1,0-.2,0-.3,0,0,0-.1,0-.2s0-.3,0-.4c0-.1,0-.1,0-.2,0,0,0-.2.2-.3.1,0,.2-.2.3-.3.1,0,.2-.2.3-.2,0,0,.2,0,.2,0,0,0,.1,0,.2-.1,0,0,0-.1.1-.2,0,0,.2-.1.3-.2s.1-.1.2-.1c0,0,.3,0,.4,0s.1,0,.2,0c0,0,.1,0,.2,0,0,0,0,0,.1-.1,0,0,0,0,.2,0,0,0,.3,0,.4,0,.1,0,.2-.1.3-.2,0,0,.2-.1.3-.2,0,0,.1,0,.2,0,0,0,0-.1.1-.2,0,0,.1,0,.2,0,0,0,.2,0,.3,0,0,0,.2-.1.3-.2,0,0,.2-.2.3-.2,0,0,.2-.2.3-.2.1,0,.2-.2.3-.2.1,0,.2-.1.3-.2,0,0,.1,0,.2,0,0,0,.2,0,.3,0,0,0,.2,0,.4,0,.2,0,.4,0,.6,0,.2,0,.3,0,.4,0,0,0,.1,0,.2,0s.2,0,.3,0c.1,0,.3,0,.4,0,.1,0,.2,0,.2-.1,0,0,.2,0,.3,0,.1,0,.2,0,.3,0,0,0,.2,0,.2,0,0,0,.1,0,.2,0,0,0,.1,0,.3,0,.2,0,.4,0,.7,0,.2,0,.4,0,.5,0,.1,0,.2,0,.3,0,.1,0,.2,0,.4,0,.2,0,.3,0,.5,0s.2,0,.2,0,0,0,.2,0c.1,0,.3,0,.5,0,.2,0,.3.1.4.1.1,0,.2,0,.2,0,0,0,.1,0,.2,0s0,0,.1,0c0,0,0,0,.1,0,0,0,.1-.1.2-.1,0,0,.2,0,.3,0,.1,0,.3-.1.5-.2.1,0,.2-.1.3-.2s.1,0,.2,0,.1,0,.2,0c0,0,.1,0,.2-.1,0,0,.1,0,.2,0s.2,0,.3-.1c0,0,.1-.1.2-.2,0,0,.2,0,.3,0,0,0,.1,0,.2,0s0,0,.1-.1c0,0,.1,0,.2-.1,0,0,.2,0,.2,0,0,0,.2,0,.2-.1,0,0,.1,0,.2,0,0,0,.2-.2.2-.2,0,0,.1,0,.2,0,0,0,.1,0,.2,0,0,0,.2-.2.5-.5.3-.3.8-.8,1.1-1.1s.4-.4.4-.4c0,0,0,0,0-.1s0,0,.8.3c.7.4,2,1.1,2.6,1.5.7.4.8.5.9.5,0,0,.2.1.2.2,0,0,0,0,0,.3,0,.2,0,.5,0,.7,0,.2,0,.2,0,.3s.1.1.2.2c0,0,0,.2,0,.3s0,.2-.1.3c0,.1-.1.2-.1.4,0,.1,0,.2,0,.3,0,0,0,.1,0,.2,0,0,0,.2,0,.3,0,0,0,.1,0,.3,0,.2-.1.5-.1.7s0,.3.1.5c0,.1.2.2.2.3,0,0,.1.1.2.2,0,0,.1.2.1.2,0,0,0,.1,0,.2,0,0,0,0-.1,0s-.3-.1-.4-.2c-.1,0-.2-.1-.3-.1,0,0-.2,0-.3,0,0,0-.1,0-.2.1s-.1.2-.1.3c0,.1,0,.2,0,.3,0,0,0,.1.2.2,0,0,.1.2.2.3s.1.2.2.3c0,0,.1.2.2.3s.3.2.4.3c.1.1.2.2.2.3,0,0,0,0,0,0,0,0,0,0-.1,0,0,0-.1,0-.3-.2-.2-.1-.4-.3-.5-.4-.1-.1-.2-.1-.2-.1,0,0-.1,0-.1,0s0,0,0,.3,0,.7,0,1,0,.5,0,.6c0,.1,0,.2,0,.3,0,.1,0,.2,0,.5,0,.3,0,.6,0,.9,0,.3,0,.5,0,.7,0,.2,0,.4.1.6,0,.2,0,.5,0,.7,0,.2-.1.3-.1.4,0,0,0,.1,0,.2s0,0,0,.1c0,0,.1.1.2.3s0,.3,0,.5c0,.1,0,.2-.1.3,0,0,0,.1,0,.2s0,.2,0,.4c0,.1-.1.3-.2.4,0,.2,0,.3,0,.4,0,.1,0,.2-.1.4s0,.4,0,.5c0,.2,0,.3,0,.5,0,.2,0,.5,0,.7,0,.2,0,.3,0,.4,0,0,0,.1,0,.2,0,0,0,.1,0,.2,0,0,0,0,0,.2,0,0,0,.2,0,.2,0,0,0,.1,0,.4,0,.2.2.6.3.8,0,.2.1.3.1.4,0,0,0,.2,0,.3,0,.1,0,.2,0,.3s0,.2,0,.5c0,.2,0,.6,0,.9,0,.3,0,.4,0,.5,0,.1,0,.2,0,.4,0,.1,0,.3,0,.4,0,.1,0,.2,0,.3,0,0,0,.1.1.2,0,0,0,.1,0,.2,0,0,0,.1,0,.2,0,0,.1.2.1.2,0,0,0,.2.1.3,0,.1.1.2.1.3,0,.1,0,.2,0,.3,0,0,0,.2.1.3,0,.1,0,.3,0,.5,0,.2,0,.3,0,.4,0,.1,0,.2,0,.3,0,0,0,.1,0,.2,0,.1,0,.2.1.4,0,.1,0,.2,0,.3,0,0,0,.1,0,.2,0,0,0,.1.1.2,0,0,0,.2.1.3,0,0,0,.1,0,.4,0,.3,0,1,0,1.3,0,.3,0,.3,0,.4,0,0,0,0,0,.2,0,0,0,.2,0,.5,0,.3,0,.9,0,1.2s0,.3-.1.4c0,0,0,.1-.1.2,0,0,0,.1,0,.2,0,0,0,.1-.1.2,0,0,0,0-.2.2-.1.2-.4.5-.5.6-.1.2-.2.2-.2.3,0,0,0,.1-.2.2-.1,0-.3.1-.4.1-.1,0-.2,0-.3,0,0,0-.1,0-.2,0,0,0-.2,0-.3,0-.1,0-.2,0-.3.1-.1,0-.2.1-.3.2-.1,0-.2.1-.3.2,0,0-.2.1-.2.2,0,0-.1,0-.2.1,0,0-.2,0-.3,0,0,0-.2,0-.3-.1-.1,0-.2,0-.3,0-.1,0-.2,0-.3,0,0,0-.1.1-.2.2,0,0-.1.2-.2.3-.1.1-.3.2-.4.3-.1,0-.2.2-.2.2s0,.2,0,.2c0,0,0,.1.1.2,0,0,.1,0,.2,0,0,0,.1,0,.2,0,0,0,.2,0,.3-.1,0,0,0,0,0,0,0,0,0,0,0,0,0,0,0,0-.1,0,0,0,0,0,0,.1,0,0,0,0,0,.1,0,0,0,.2-.1.2,0,0-.2.1-.3.2,0,0-.2.1-.2.2,0,0-.1.2-.3.3-.1.2-.4.4-.5.5s-.2.2-.3.2c0,0,0,0-.1,0,0,0,0,0-.2,0,0,0-.1,0-.2.1s0,.1-.1.2c0,0-.1.1-.2.2,0,0-.1,0-.2,0,0,0-.1,0-.2,0,0,0-.1,0-.2,0,0,0-.1-.1-.2-.1,0,0,0,0-.2,0,0,0-.3.1-.4.2-.1,0-.2,0-.3,0s-.1,0-.2-.1c0,0-.1-.1-.2-.2,0,0,0,0-.1,0s0,0-.1,0c0,0,0,0,0,0,0,0,0,0,0,0,0,0,0,0-.1,0-.3-.3-.3-.4-.4-.5,0,0-.2,0-.3,0,0,0-.2,0-.2,0,0,0,0,0-.1,0,0,0-.2,0-.3,0-.1,0-.2,0-.3,0,0,0,0,0-.1-.2,0,0-.1,0-.2-.1,0,0-.2,0-.3-.2,0,0-.2-.1-.3-.2-.1,0-.2,0-.3,0-.1,0-.2,0-.3,0s-.1,0-.2,0c0,0-.1,0-.2,0,0,0,0,0-.4,0-.3,0-.8,0-1.2,0s-.4,0-.5,0c0,0-.2,0-.3,0-.1,0-.3.2-.5.3-.1,0-.2.1-.3.2,0,0,0,.1,0,.1s-.1,0-.2,0c0,0,0,0-.2,0,0,0-.2.2-.3.3,0,.1-.2.2-.2.3,0,0,0,0-.1.1,0,0,0,0-.1,0,0,0-.1,0-.2.1,0,0,0,0-.1,0,0,0,0-.1,0-.2s0-.1,0-.3,0-.5,0-.6c0-.2,0-.2-.1-.3,0,0,0-.1,0-.2,0,0,0-.2-.1-.3,0,0-.1-.2-.1-.2,0,0,0-.1,0-.2,0,0,0-.1,0-.3,0-.2,0-.4,0-.6,0-.2,0-.3,0-.4,0-.1,0-.2,0-.3,0,0,0-.1,0-.2,0,0,0,0,.1,0,0,0,0,0,0,0,0,0,0,.1.1.2,0,0,0,.1.1.2,0,0,.2.2.2.3,0,0,.1.2.2.3s.2.2.3.2c0,0,.1,0,.2,0,0,0,.1,0,.2,0,0,0,.2,0,.2,0,0,0,0,0,.1.1,0,0,.1.2.2.2,0,0,.2.1.3.1,0,0,.1,0,.4,0,.3,0,.9,0,1.2,0,.3,0,.5,0,.5,0,0,0,.1,0,.2,0,0,0,0,0,.1-.1s0,0,.2,0c0,0,.1,0,.2,0,0,0,.1,0,.2,0,0,0,.1,0,.2-.1,0,0,.2,0,.3-.1,0,0,.2,0,.2,0,0,0,.1-.1.2-.2,0,0,.1-.2.2-.3,0-.1.2-.3.2-.4,0,0,0-.1.2-.2s.2,0,.2-.1c0,0,.1-.1.1-.2,0,0,0-.2,0-.3s0-.3,0-.4c0-.1,0-.1,0-.2,0,0,0-.2,0-.3s0-.2,0-.3c0-.1,0-.3,0-.4s0-.2,0-.3c0-.1,0-.2,0-.4,0-.1,0-.3,0-.4s0-.1-.1-.2c0,0-.1-.1-.2-.2,0,0-.1,0-.2,0,0,0-.1,0-.2.2-.1,0-.3.2-.4.2-.1,0-.2,0-.2,0,0,0,0,0,0,.1,0,0,0,0-.1.1,0,0-.1,0-.2,0,0,0-.2,0-.2,0,0,0-.1,0-.2,0,0,0-.1,0-.2,0,0,0-.1-.1-.2-.2,0,0-.1,0-.2,0,0,0,0,0-.1-.1,0,0-.1,0-.2,0,0,0-.2,0-.2,0,0,0-.2,0-.2.1,0,0,0,0,0,.2,0,.2,0,.5,0,.7,0,.2,0,.3,0,.4,0,0,0,.2,0,.3,0,.1,0,.3,0,.4s0,.3,0,.4c0,.1,0,.2,0,.3,0,0,0,0,0,.1,0,0,0,.1-.1.2s0,.1-.1.1c0,0,0,0-.1,0s0-.2-.1-.3c0,0-.1-.2-.2-.3,0,0-.1-.1-.2-.2,0,0,0-.2-.1-.2,0,0,0-.1-.1-.2,0,0-.1,0-.1-.1,0,0,0,0-.1-.1,0,0,0,0-.2-.2-.1-.1-.3-.3-.4-.4-.1,0-.2,0-.3,0,0,0-.2,0-.2,0,0,0,0,0,0-.1,0,0,0,0,0-.1,0,0,0-.1,0-.2,0,0,0,0,.1,0,0,0,0,0,.1-.1,0,0,0,0,.1-.1,0,0,.1-.2.2-.2,0,0,.2-.2.3-.3,0,0,.1-.1.2-.2,0,0,.1-.1.2-.2,0,0,.2-.1.2-.2,0,0,.1-.1.2-.1,0,0,0,0,0,0,0,0,0,0,0-.1,0,0,.2-.1.2-.2s.1-.1.2-.2c0,0,.1-.1.2-.2,0,0,.1,0,.2,0,0,0,.1,0,.2,0,0,0,.1,0,.2,0s0,0,.2,0c0,0,.1,0,.2-.1,0,0,.1-.1.2-.2s.2,0,.3-.1c0,0,.1,0,.2,0,0,0,.1,0,.2-.1s.2,0,.3,0c.1,0,.2,0,.2,0s0,0,.1,0c0,0,.2-.1.3-.2,0,0,.2,0,.2-.1,0,0,.1,0,.1-.1,0,0,0-.2,0-.2,0,0-.1-.1-.2-.2,0,0-.2,0-.2,0,0,0-.2,0-.2-.1,0,0-.2,0-.3,0,0,0-.1,0-.2,0-.1,0-.2,0-.3,0,0,0-.2,0-.2,0,0,0-.2,0-.2,0,0,0,0,0,0-.1,0,0,0-.2,0-.3s0-.2,0-.2c0,0,0,0,0-.1,0,0,0,0,.1-.2,0,0,.2-.2.3-.2s.2,0,.2-.2c0,0,0-.2,0-.2,0,0,0-.1,0-.2s0-.2-.1-.3c0,0-.1,0-.2,0,0,0-.1,0-.2,0,0,0,0,0-.1,0,0,0-.1,0-.1,0,0,0,0,0,0-.1,0,0,0-.1.2-.2,0,0,.2-.1.3-.1s.1,0,.2-.1,0-.1,0-.1c0,0,0,0,0,0,0,0-.1,0-.2,0,0,0-.1,0-.2,0,0,0,0,0-.1,0,0,0,0,0-.1,0,0,0,0,0,0-.2,0,0,.1-.2.2-.3,0-.1.2-.2.3-.3,0,0,.2-.2.2-.3,0,0,0-.2,0-.2s0-.1,0-.2c0,0,0,0,0,0,0,0-.1-.1-.2-.2s-.1,0-.2,0-.1.1-.2.2c0,0-.1.1-.2.2,0,0,0,0-.1,0,0,0,0,0,0-.1,0,0,0,0,0-.1s0-.1,0-.2c0,0,.1-.1.2-.2,0,0,.2-.2.3-.2,0,0,.1-.1.2-.2,0,0,.1-.2.2-.3,0,0,.1-.1.1-.2s0-.2,0-.2c0,0,0,0,.2-.1,0,0,.1,0,.2,0,0,0,0-.1,0-.2,0,0,0-.1,0-.2,0,0,0-.1-.1-.1,0,0-.1,0-.2,0,0,0-.1,0-.2.1,0,0-.2.1-.2.2s-.1,0-.2.1c0,0,0,0-.1.1,0,.1-.2.3-.3.4,0,.1-.1.2-.1.2,0,0,0,0,0,0,0,0,0-.1,0-.2,0,0,0-.1,0-.2,0,0,0,0,0-.1s0,0,0-.1c0,0,0,0,.1-.1,0,0,0,0,.1-.1,0,0,0,0,0-.1,0,0,.1,0,.2-.1,0,0,0,0,.1-.1,0,0,0-.1,0-.2,0,0,.1-.1.2-.2,0,0,0-.1.1-.2,0,0,.1-.1.2-.2,0,0,0-.1,0-.2,0,0,0-.1-.1-.2s-.2,0-.3,0c0,0-.2,0-.2,0,0,0-.1,0-.2,0,0,0,0,0-.1,0,0,0,0,0-.1,0,0,0-.1,0-.2,0,0,0,0-.1,0-.2,0,0,0-.1,0-.2,0,0-.1-.1-.2-.2,0,0-.1,0-.2,0s-.2,0-.2,0,0,0-.1,0c0,0,0,.1,0,.2s0,0,0,0,0,0,0,.1c0,0-.2.2-.3.2s-.1.2-.1.3,0,.1-.1.2c0,0-.1.1-.2.2,0,0,0,.1,0,.2,0,0,0,0,0,.1,0,0-.1.1-.2.2,0,0-.1.1-.2.2,0,0,0,0,0,0,0,0,0-.1,0-.2,0,0,0-.1,0-.2,0,0,0-.1,0-.1,0,0,0,0,0,0,0,0,0-.1,0-.2,0,0,0,0,0-.1,0,0,0,0-.1-.1,0,0,0,0,0-.2,0,0,0-.2,0-.3,0-.1,0-.3,0-.4,0-.1,0-.2,0-.3,0,0,0-.1,0-.2,0,0,0-.1,0-.2s0,0-.1-.2-.3-.4-.5-.5c-.1-.2-.2-.2-.3-.3,0,0-.1-.1-.2-.2,0,0,0,0-.1,0,0,0-.1,0-.2,0s-.2,0-.3,0c0,0-.2,0-.2,0,0,0,0,0,0,0,0,0,0,0-.1-.2s-.1-.2-.2-.2c0,0,0-.1,0-.2,0,0,0-.1,0-.2s0-.1,0-.2c0,0,0-.2-.1-.2,0,0,0-.1,0-.2,0,0,0-.1-.1-.2,0,0-.1-.1-.2-.2s-.1-.1-.2-.2c0,0-.2-.1-.3-.2,0,0-.2-.1-.2-.2,0,0,0,0-.1,0,0,0-.1,0-.2,0,0,0,0,0,0,0,0,0,0,0,0-.1,0,0,0,0,0-.2,0,0,0-.2,0-.3,0,0,0-.1-.1-.2s-.1-.1-.1-.2c0-.1,0-.2,0-.4,0-.2,0-.3,0-.5,0-.1,0-.2,0-.3s0,0,0,0c0,0-.1,0-.2,0-.1,0-.3.2-.4.3,0,.1-.1.2-.2.3,0,0,0,.1,0,.2,0,0,0,.2,0,.2,0,0,0,.1,0,.2,0,0,0,0,0,0s0-.1,0-.2,0,0,0-.1c0,0,0-.1-.1-.2,0,0-.1-.2-.2-.2,0,0-.1-.1-.2-.2,0,0,0,0,0,0,0,0,0,0,0-.1,0,0,0-.1,0-.3s0-.4.1-.6c0-.2,0-.2,0-.3,0,0,0-.1,0-.3,0-.1,0-.3,0-.5,0-.2,0-.2,0-.4,0-.1,0-.3,0-.3,0,0,0,0-.2,0,0,0-.1,0-.2,0,0,0-.1,0-.2,0,0,0,0,0-.1.2,0,.1,0,.4,0,.5,0,.1,0,.2,0,.3,0,0,0,.2,0,.2s0,.1,0,.2c0,0,0,0-.1.2,0,0,0,.1-.1.2,0,0,0,.2,0,.2,0,0,0,0,0,.1,0,0,0,0,0,0,0,0,0,0-.1,0,0,0,0,0,0-.2,0-.1,0-.3,0-.5,0-.2,0-.2,0-.3,0,0,0-.1,0-.2s0,0,0-.2c0-.2,0-.5,0-.7,0-.2,0-.3,0-.3,0,0,0,0,0-.1,0,0,0-.1-.1-.1s0,0-.1,0c0,0,0,0-.1,0s0,0,0,.4,0,1,0,1.4,0,.4,0,.4c0,0,0,0,0,0,0,0,0,0,0,0,0,0,0-.1,0-.2,0-.1,0-.2,0-.4,0-.2-.1-.3-.2-.5,0-.1-.2-.3-.3-.4s-.2-.4-.3-.5c0-.2-.1-.3-.2-.4,0-.1,0-.2-.1-.4,0-.1,0-.2,0-.4s0-.2-.1-.3c0,0-.1-.2-.2-.2,0,0,0,0-.1,0,0,0,0,0-.2.2,0,.1-.2.3-.3.5-.1.2-.2.3-.2.4,0,0,0,.1,0,.2,0,0,0,.2-.1.3,0,0,0,.1,0,.2,0,0,0,.2,0,.2,0,0,0,.1,0,.3,0,.1-.2.3-.3.4,0,.1,0,.2,0,.2,0,0,0,.1,0,.2,0,0,0,.1-.1.2,0,0,0,.1,0,.2,0,0,0,.1,0,.2,0,0,0,0-.1.1,0,0-.2,0-.2.1,0,0-.2,0-.2,0,0,0,0,0-.1.2,0,.1-.1.3-.2.5,0,.1,0,.2-.1.3,0,0,0,.2,0,.2,0,0,0,.1,0,.2,0,0-.1.1-.2.2,0,0-.1,0-.2,0,0,0,0-.1-.1-.2,0,0,0-.2,0-.2s0,0-.1,0c0,0-.1,0-.2.1,0,0,0,0,0,.4,0,.3,0,.9,0,1.2,0,.4,0,.5,0,.6s0,.2,0,.2c0,0,0,0,0,0,0,0,0,0-.2,0,0,0-.1-.2-.1-.2,0,0,0-.2,0-.3,0,0,0-.1,0-.5s0-1.1,0-1.5c0-.4,0-.5,0-.6,0,0,0,0-.1,0,0,0-.1,0-.1.1,0,0,0,.1,0,.2s0,.1,0,.2c0,0,0,.1,0,.2,0,0,0,.1,0,.2,0,0,0,0-.1.1,0,0,0,.1,0,.3,0,.2,0,.4,0,.6,0,.2,0,.4,0,.5,0,.1,0,.2,0,.3,0,0,0,.2,0,.2,0,0,0,.1-.2.2,0,0,0,.1-.1.2,0,.1,0,.2,0,.3s0,.1,0,.2c0,0,0,0,0,0,0,0,0-.2-.1-.2,0,0,0-.2,0-.2,0,0,0-.2-.1-.2,0,0,0,0,0,0s0,0-.1.1c0,0,0,.1,0,.2,0,0,0,.1,0,.2,0,.1,0,.2,0,.3,0,0-.1,0-.2-.1,0-.1-.1-.2-.2-.3,0,0,0-.2-.1-.2,0,0-.1,0-.2,0,0,0-.1,0-.2.2,0,0,0,.1-.2.3-.1.2-.3.4-.4.6-.1.1-.1.2-.1.2s0,.1,0,.3v1.3c0,.1,0,.2,0,.3,0,.1,0,.2,0,.3,0,0,0,0-.1,0,0,0-.1,0-.2-.1,0,0,0-.2-.1-.3,0-.1,0-.2,0-.3,0,0,0-.1,0-.2s-.1-.3-.2-.4c0-.1,0-.2,0-.3,0,0-.1,0-.1,0,0,0,0,.1,0,.2,0,0,0,.1,0,.2,0,0,0,.1.1.2,0,0,0,.1,0,.2,0,0,0,0,0,.1,0,0,0,0,0,.1,0,0,0,0,0,.2,0,.1,0,.4,0,.5,0,.2,0,.2,0,.3,0,0,0,.2,0,.2,0,0,0,.1.1.2,0,0,0,.1,0,.2,0,0,0,0,0,0,0,0-.2,0-.2,0,0,0-.2-.2-.3-.3,0,0-.1,0-.1,0,0,0,0,.1,0,.2,0,0,0,.1.1.2,0,0,0,0,0,.1,0,0,0,.1,0,.2,0,0,0,.2.1.3s0,.2.1.2c0,0,0,.1,0,.2,0,0-.1,0-.2,0,0,0-.1,0-.2,0,0,0-.1,0-.2,0s0,0,0,0c0,0,0,0-.1-.1,0,0-.1-.1-.2-.2,0,0,0-.2,0-.2,0,0,0-.1,0-.2,0,0,0-.2-.1-.3,0,0,0-.2-.1-.3,0,0-.1-.1-.1-.2,0,0,0-.2,0-.2,0,0-.1-.1-.2-.2,0,0,0,0,0-.1,0,0,0-.1,0-.2,0,0-.1-.2-.2-.3,0-.1-.1-.2-.3-.5-.2-.3-.5-.7-.7-1-.2-.3-.2-.3-.2-.3,0,0,0,.2.1.3.1.1.3.3.3.5,0,.1.1.2.1.3,0,0,0,.2.1.2,0,0,.2.2.2.3,0,0,0,.2.1.3,0,0,.1.2.2.3,0,0,0,.2,0,.3,0,0,0,.2,0,.2,0,0,0,.2.1.3,0,0,.1.2.2.3,0,0,0,.2.1.3,0,0,0,.2,0,.3,0,0,0,.1,0,.2,0,0,0,.1-.1.2s0,.1-.1.1c0,0,0,0-.1,0,0,0,0,0,0,.1,0,0-.1,0-.2.1,0,0-.1.1-.1.2,0,0,0,.1,0,.2s0,0-.1,0c0,0-.2-.1-.2-.2,0,0-.2-.2-.2-.3,0,0-.1-.1-.2-.2s-.1-.2-.2-.2c0,0-.1,0-.2,0,0,0-.1,0-.2-.1,0,0-.2,0-.2-.2,0,0,0-.2,0-.3,0,0,0-.1-.1-.2,0,0-.2-.2-.2-.3,0-.1-.2-.3-.2-.3,0,0-.1,0,0,0,0,0,0,.2.1.2,0,0,0,.1,0,.2,0,0,0,.1,0,.2,0,0,0,.1.1.2,0,0,.1.2.2.2s0,.2.1.3c0,0,0,.1.1.2,0,0,0,0,.2.2,0,.1.2.3.3.4,0,0,.1.1.1.2,0,0,0,0,0,.2,0,0,0,.2.1.2,0,0,.1,0,.1.1,0,0,0,0,0,.2s0,.3,0,.5c0,.1,0,.2,0,.3,0,0,0,0,0,0,0,0-.1,0-.2,0,0,0,0,0-.2,0,0,0-.2-.2-.3-.3s-.2-.2-.2-.2c0,0,0-.1,0-.2,0,0,0,0,0,0,0,0,0,0-.1-.1,0,0,0-.1-.1-.2,0-.1,0-.2-.1-.3s0-.1-.1-.2c0,0-.2-.2-.3-.2,0,0-.2,0-.2,0,0,0-.2.1-.2.2,0,0,0,.1,0,.2,0,0,0,0-.1,0,0,0-.1,0-.2,0,0,0-.1,0-.2.1,0,0,0,0,0,.2,0,0,0,.2,0,.2,0,0,.2.1.3.2,0,0,0,0,.1.1s0,0,0,.1c0,0,0,0,0,.1s.2,0,.2.1c0,0,0,0,.1,0,0,0,0,.1,0,.2,0,0,0,.1,0,.2,0,0,0,0,0,0s0,0,0,.1c0,0,.1.3.2.4,0,0,.1.1.1.2,0,0,0,0,0,.1,0,0,0,0,0,.1,0,0,.1,0,.2,0,0,0,0,0,.1.2,0,0,0,.2,0,.3,0,0,0,.1.1.2s.1.2.1.2c0,0,0,.2,0,.2,0,0,0,0-.1,0,0,0-.1,0-.2-.1-.1,0-.3-.2-.5-.3-.1-.1-.2-.2-.3-.3,0,0-.2-.1-.2-.2,0,0-.1-.1-.2-.2,0,0-.2,0-.2,0,0,0-.1,0-.2,0,0,0,0,0-.1,0,0,0,0,0,0,.1,0,0,0,0,0,0,0,0,0,0,0,.1,0,0,.1.2.2.3,0,0,.1.1.1.2,0,0,0,0,.1,0,0,0,0,0,.1.2,0,0,.2.2.4.4.2.2.4.5.5.7.1.2.2.3.2.3,0,0,0,.1,0,.2,0,0,0,0-.2.1,0,0-.2,0-.3,0,0,0-.2,0-.2.1,0,0-.1,0-.2.1,0,0-.2,0-.3.1s-.1,0-.3,0c-.2,0-.5,0-.6,0-.2,0-.3,0-.4,0-.1,0-.3,0-.3,0,0,0,0,.2,0,.2,0,0,0,.2,0,.2,0,0,0,0,.2.1s.4.3.5.4c.1.1.2.2.3.2,0,0,.1,0,.2,0,0,0,.1,0,.1,0,0,0,0,.1,0,.2,0,0,0,.1,0,.2,0,0,0,0,0,0,0,0-.1,0-.2,0-.1,0-.2,0-.3,0,0,0-.1,0-.2,0,0,0-.1,0-.2.1s-.1,0-.3,0c-.1,0-.4.2-.5.3s-.2.1-.3.2c0,0-.1,0-.2.2,0,0,0,.3,0,.4s0,.3,0,.4c0,.1,0,.2,0,.2,0,0-.2.1-.3.2-.1,0-.2.2-.3.3,0,.1,0,.2,0,.4,0,.1,0,.3,0,.4,0,0,0,.1.1.2,0,0,.1.2.2.3,0,.1.1.3.2.4,0,.1.1.2.2.3s0,.1.1.2c0,0,.1.2.2.3s.2.1.3.2c0,0,0,.1.1.2,0,0,0,0,.1.1,0,0,.2.2.3.3,0,0,.1.2.2.2,0,0,.1,0,.2.1s.2,0,.3,0c0,0,.2,0,.3,0,.2,0,.4.1.6.2.2,0,.3,0,.3,0,0,0,0,0,.2,0s.2,0,.3-.1c0,0,.2,0,.3,0,0,0,.2,0,.3,0,0,0,.1,0,.3,0,.1,0,.3,0,.4-.1.1,0,.1-.1.2-.1,0,0,0,0,.1,0,0,0,.2-.2.2-.2,0,0,0-.2.2-.3,0,0,.2-.1.3-.2.1,0,.2-.2.2-.3,0-.1,0-.2,0-.3s0-.2,0-.3c0,0,0-.1,0-.2,0-.1,0-.2,0-.4s0-.2,0-.3c0,0,0-.2-.1-.4-.1-.2-.3-.4-.4-.5-.1-.1-.2-.2-.2-.2,0,0-.2-.2-.3-.2s-.2,0-.2,0c0,0-.1-.1-.2-.2,0,0,0-.1-.2-.2,0,0-.2,0-.4-.2-.1,0-.3-.2-.4-.2-.1,0-.2,0-.3,0,0,0-.1,0-.2.2,0,0,0,.2,0,.4,0,.2,0,.4,0,.6,0,.2,0,.3,0,.4,0,0,0,.2,0,.2s0,.1,0,.3c0,.1-.1.3-.2.5,0,.2-.1.3-.2.3s0,0-.1,0c0-.1-.2-.3-.2-.4,0-.1,0-.2,0-.3,0,0,0-.1,0-.2,0,0,0-.2,0-.3,0,0,0-.2,0-.2,0,0,0-.2-.2-.3,0-.2-.2-.4-.3-.5,0-.2-.2-.3-.2-.4,0,0,0-.1,0-.2,0,0,0,0,.5,0,0,0,.1,0,.2,0h0s.2,0,.3,0c.1,0,.2,0,.3,0,.1,0,.2,0,.3,0,.1,0,.3,0,.4,0,0,0,.1,0,.2,0,0,0,0,0,.2,0,.1,0,.3.2.6.3s.5.2.7.3c.2,0,.3.2.5.2.1,0,.2,0,.3,0,0,0,.1,0,.2.1.1.1.3.3.4.5.1.2.3.5.4.6.1.2.2.3.3.4,0,0,0,.1.1.2,0,0,0,.1,0,.2,0,0,0,.2-.1.3,0,.1,0,.3-.1.4,0,.1-.1.2-.2.3,0,0-.1,0-.4.3-.3.3-.7.8-1,1.1s-.4.4-.5.5c0,0-.2,0-.3.1,0,0-.2.1-.3.2-.1,0-.3.1-.4.2-.2,0-.4,0-.6,0-.2,0-.4,0-.6,0s-.3,0-.4-.1c-.1,0-.2-.1-.4-.2-.1,0-.3,0-.4,0-.1,0-.2,0-.3,0,0,0,0,0-.2,0s-.3-.2-.4-.3c-.1-.1-.1-.2-.2-.3,0,0-.2-.1-.4-.2-.1,0-.3-.1-.4-.2-.1,0-.2,0-.3-.2,0,0-.2-.1-.2-.2,0,0-.1-.2-.2-.3,0,0,0-.1-.1-.3,0-.1,0-.3-.2-.5-.1-.2-.4-.5-.5-.6-.2-.2-.3-.2-.4-.2-.1,0-.3-.1-.5-.2-.2,0-.3,0-.4-.1-.2,0-.3,0-.5,0-.1,0-.2,0-.3,0,0,0,0,0-.2,0,0,0-.2,0-.3,0-.1,0-.2,0-.4,0-.1,0-.3,0-.4,0-.1,0-.1.1-.1.2,0,0,0,.2.1.3,0,0,.2.2.3.3.1,0,.2.2.3.2.1,0,.2,0,.2.1,0,0,0,0,0,.1,0,0-.1,0-.2.1,0,0-.2,0-.4,0-.1,0-.3-.1-.5-.2-.1,0-.3,0-.4-.1-.1,0-.3,0-.3,0,0,0,0,0,0,0Z"/>
    <path class="st1" d="M38.2,58.7c0,0,0,.1,0,.1,0,0,0,0-.1.1,0,0-.2.2-.3.3,0,0,0,.1-.1.2,0,0,0,0,0,0,0,0,0,0-.1,0s-.2.2-.4.3c-.1,0-.2,0-.3,0,0,0,0,0-.1,0,0,0,0,0-.2,0-.1,0-.3,0-.5,0-.2,0-.3,0-.4,0,0,0-.1.2-.2.2,0,0,0,0,0,0,0,0,0-.1,0-.2,0,0,0,0,0-.1,0,0,0-.1,0-.2,0,0,0,0,.1-.2,0,0,.2-.2.3-.3,0,0,0-.2,0-.2,0,0,0,0,0-.1s0-.1,0-.2c0,0,0-.1.1-.1,0,0,.1,0,.2,0,0,0,0,0,0,0,0,0,0,0,0,0,0,0,0,0,.1,0,0,0,0,0,.1,0s.1,0,.2,0c.1,0,.2,0,.3,0,0,0,.1,0,.2,0,0,0,0,0,0,0,0,0,0,0,.1,0,0,0,0,0,.1,0,0,0,.1,0,.2,0,0,0,.1,0,.2,0,0,0,0,0,0,.2s0,.2,0,.2,0,.1,0,.2Z"/>
    <path class="st1" d="M35.2,61.9c0,0,0,.2,0,.2,0,0,0,0,0,.1,0,0,0,0-.1.1,0,0,0,0,0,0,0,0-.1,0-.2,0,0,0,0,0-.1.1s0,0,0,0c0,0,0,0,0,0,0,0,0,0,0,0,0,0,0,0-.1,0,0,0,0,0,0,.1,0,0,0,0-.1.1,0,0,0,0-.1.1,0,0-.1,0-.2,0,0,0-.1,0-.2.2,0,0-.2.2-.3.3,0,0,0,.1,0,.2,0,0,0,.2,0,.3s0,.1,0,.2c0,0,0,0,0,.1,0,0,0,0,0,0,0,0,0,0,0,.1,0,0,0,.1,0,.2,0,.1,0,.3,0,.4,0,0,0,.1,0,.2,0,0,0,0,0,.1,0,0,0,0,0,.1s0,.1-.1.2c0,0-.1.2-.2.2,0,0,0,0-.1,0,0,0,0,0-.1-.1,0,0-.1-.1-.1-.2,0,0,0,0,0,0,0,0,0,0,0,0,0,0,0,0,0,0s0,0,0,0c0,0,0,0,0,0,0,0,0,0,0-.1,0,0,0-.2,0-.2,0,0,0-.1,0-.2,0,0,0-.1,0-.2,0,0,0,0,0-.2s.1-.1.1-.2c0,0,0-.1,0-.2,0,0,0-.2,0-.3s0-.1,0-.2c0,0,0-.1,0-.2,0,0,0-.2,0-.3,0-.1-.1-.2-.2-.2,0,0-.1,0-.2-.1,0,0,0,0,0,0s0,0-.1,0c0,0,0,0,0,0s0,0-.1,0c0,0-.1-.2-.1-.2s0,0,0-.1c0,0,0,0,0,0,0,0,0,0,0,0,0,0,0,0,0-.1,0,0,0-.1,0-.2,0,0,0,0,0-.1,0,0,.2,0,.2-.1,0,0,0,0,.1,0,0,0,0,0,.1,0,0,0,.1,0,.3,0,.1,0,.2,0,.3,0,0,0,0,0,.1,0,0,0,0,0,0,0,0,0,0,0,0,0,0,0,0,0,0,0,0,0,0,0,0,0,0,0,0,0,.1-.1,0,0,.1-.1.2-.2s0,0,0-.1c0,0,0,0,0,0,0,0,0,0,0,0,0,0,0,0,0,0,0,0,0,0,0,0,0,0,0,0,0,0,0,0,0,0,.1.1,0,0,0,0,.1,0,0,0,0,0,0,0,0,0,0,0,0,0,0,0,0,0,0,.1,0,0,0,0,0,0,0,0,0,0,0,.1,0,0,0,0,0,.1,0,0,0,0,.1,0,0,0,.1,0,.2,0,0,0,0,0,0,0h.1s0,0,0,0c0,0,0,0,0,0Z"/>
    <path class="st1" d="M31.8,60s0,0,0,.1c0,0,0,0,0,0,0,0-.2.2-.2.3,0,0,0,0-.1,0,0,0-.1-.1-.2-.2,0,0,0,0-.1-.1,0,0-.1,0-.2,0,0,0-.2,0-.3,0,0,0-.1,0-.2,0,0,0-.2,0-.3,0,0,0-.1,0-.2,0s0,0-.1,0c0,0-.1,0-.1,0,0,0,0,0-.1,0,0,0-.1,0-.1,0,0,0,0,0,0,0,0,0,0-.1,0-.2,0,0,0,0,0-.1,0,0,0,0,0-.2,0,0,0-.2-.1-.3s0-.1,0-.2,0,0-.1,0c0,0,0,0,0-.1,0,0,0-.1,0-.2,0,0,0-.1,0-.2,0,0,0-.1,0-.2,0,0,0-.1,0-.2,0,0,0-.1,0-.2,0,0,0,0,0-.1,0,0,0-.1.1-.1,0,0,0,0,.1,0,0,0,.1,0,.2.1,0,0,.1.1.2.2,0,0,.1,0,.2.1,0,0,.1,0,.1.1,0,0,0,.1,0,.2,0,0,0,0,.1.1,0,0,0,0,.1.1,0,0,0,0,.1,0s.1,0,.2.1c0,0,.1,0,.2.1,0,0,.1,0,.1,0,0,0,0,0,.1,0,0,0,0,0,.1,0s0,0,.1,0c0,0,0,0,.1,0s0,0,0,0c0,0,0,0,0,.1,0,0,0,0,0,0,0,0,.1,0,.2,0,0,0,0,0,0,0,0,0,0,0,0,.1,0,0,0,0,0,0,0,0,0,0,0,0s0,0,0,0c0,0,0,0,.1,0,0,0,0,0,0,0,0,0,0,0,0,.1Z"/>
  </g>
</svg>